<svg width="17" height="17" viewBox="0 0 17 17" fill="none" xmlns="http://www.w3.org/2000/svg">
<path d="M16.522 6.86572C15.94 2.99495 12.472 0 8.30501 0C3.73001 0 0 3.58828 0 8.05242C0 9.60642 0.467006 11.0756 1.25301 12.3188C1.48701 12.6578 1.749 12.9969 2.011 13.3077L3.759 11.3016C3.555 11.0191 3.38101 10.7366 3.20601 10.4258C2.85601 9.71942 2.65201 8.90002 2.65201 8.05242C2.65201 5.02924 5.18701 2.57113 8.30501 2.57113C10.986 2.57113 13.259 4.40765 13.812 6.86572C13.9 7.23302 13.958 7.65692 13.958 8.05242C13.958 8.36322 13.929 8.64572 13.871 8.92832C13.783 9.43692 13.609 9.94542 13.405 10.3975C13.259 10.7083 13.084 10.9908 12.88 11.2451L12.851 11.2734C12.618 11.5842 12.356 11.8667 12.064 12.121C12.006 12.1775 11.918 12.234 11.86 12.2905C11.831 12.3188 11.802 12.3188 11.773 12.347C11.744 12.3753 11.714 12.3753 11.714 12.4035C11.714 12.4035 11.685 12.4035 11.685 12.4318C11.365 12.6578 10.986 12.8839 10.607 13.0251C10.403 13.1099 10.17 13.1947 9.93701 13.2794C9.41201 13.4207 8.88801 13.5055 8.30501 13.5055C7.75201 13.5055 7.19801 13.4207 6.70201 13.2794C6.46901 13.2229 6.23601 13.1382 6.03201 13.0251L4.45901 14.8617C4.40001 14.9182 4.34201 15.0029 4.28401 15.0594C4.66301 15.2572 5.071 15.455 5.479 15.5963C5.799 15.7093 6.14901 15.8223 6.49901 15.8788C7.08101 16.0201 7.72201 16.0766 8.36301 16.0766C9.38301 16.0766 10.345 15.9071 11.219 15.5963C11.627 15.455 12.035 15.2572 12.414 15.0594C12.851 14.8334 13.259 14.5509 13.638 14.2401C13.725 14.1553 13.812 14.0988 13.9 14.014C13.929 13.9858 13.958 13.9575 13.987 13.9293C14.104 13.8163 14.22 13.7315 14.308 13.6185C14.424 13.5055 14.512 13.3924 14.628 13.2794C14.92 12.9686 15.153 12.6296 15.386 12.2905C15.561 12.0362 15.707 11.7537 15.852 11.4712C15.881 11.4147 15.911 11.3581 15.911 11.3299C15.998 11.1604 16.085 10.9626 16.144 10.7648C16.464 9.91722 16.639 8.98482 16.639 8.02422C16.61 7.65692 16.581 7.26132 16.522 6.86572Z" fill="white"/>
<path d="M16.6098 8.05244C16.6098 9.01314 16.4348 9.94555 16.1148 10.7931C16.0558 10.9909 15.9688 11.1604 15.8808 11.3582C15.8518 11.4147 15.8228 11.4712 15.8228 11.4994C15.6768 11.782 15.5318 12.0645 15.3568 12.3188C15.1238 12.6861 14.8618 12.9969 14.5988 13.3077C14.4828 13.4207 14.3948 13.5337 14.2788 13.6468C14.1618 13.7598 14.0748 13.8445 13.9578 13.9575H11.6848V9.91724L12.8508 11.2734L12.8798 11.2452C13.0838 10.9909 13.2588 10.7083 13.4048 10.3975C13.6378 9.94554 13.7828 9.43694 13.8708 8.92834C13.9288 8.64584 13.9578 8.33504 13.9578 8.05244C13.9578 7.65694 13.8998 7.26134 13.8128 6.86584H16.5218C16.5808 7.26134 16.6098 7.65694 16.6098 8.05244Z" fill="white"/>
<path d="M15.8228 11.4994C15.6768 11.782 15.5318 12.0645 15.3568 12.3188C15.1238 12.6861 14.8608 12.9969 14.5988 13.3077C14.4828 13.4207 14.3948 13.5337 14.2788 13.6467C14.1618 13.7597 14.0748 13.8445 13.9578 13.9575C13.8418 14.0705 13.7248 14.1553 13.6078 14.2401C13.2298 14.5509 12.8218 14.8334 12.3848 15.0594C12.3258 15.0029 12.2678 14.9464 12.2098 14.8617L10.6358 13.0251L8.33383 10.3692L6.03183 13.0251C5.65283 12.8556 5.27482 12.6578 4.92482 12.4035C4.86682 12.3753 4.83782 12.3188 4.77882 12.2905C4.69182 12.234 4.63383 12.1775 4.57483 12.121C4.28383 11.8667 4.02182 11.5842 3.78882 11.2734L8.33383 6.01813L11.6848 9.91722L12.8508 11.2734L13.0258 11.4994L13.1418 11.6407C13.4628 11.9515 13.8998 12.1493 14.3948 12.1493C15.0068 12.2058 15.5028 11.9232 15.8228 11.4994Z" fill="white"/>
</svg>
