<svg width="151" height="23" viewBox="0 0 151 23" fill="none" xmlns="http://www.w3.org/2000/svg">
<path d="M39.0176 3.94885V7.11332H53.7912V3.94885H39.0176ZM42.2812 16.2959H39.0176V19.4321H53.7912V16.2959H42.2812ZM39.0176 10.1083V13.2727H50.8773V10.1083H39.0176Z" fill="white"/>
<path d="M19.4651 19.4321V10.1365H30.9168C31.791 10.1365 32.4612 9.45835 32.4612 8.63898C32.4612 7.79136 31.7619 7.14152 30.9168 7.14152H21.738L19.4651 3.97705H30.9168C33.5685 3.97705 35.7248 6.06786 35.7248 8.63898C35.7248 11.2101 33.5685 13.3009 30.9168 13.3009H22.7287V19.4603H19.4651V19.4321Z" fill="white"/>
<path d="M60.9013 10.7016V19.4604H57.6377V3.94885L69.1478 12.8489V3.94885H72.4114V19.4604L60.9013 10.7016Z" fill="white"/>
<path d="M95.0525 22.7096L85.961 7.39583L81.0948 16.2394H85.116L83.0762 19.4038H75.4126L85.961 0.812622L96.9174 19.2061L95.0525 22.7096Z" fill="white"/>
<path d="M103.037 19.4321C100.327 19.4321 98.1414 17.3131 98.1414 14.7137V3.94885H101.405V14.7137C101.405 15.5613 102.133 16.2959 103.037 16.2959H109.535C110.409 16.2959 111.167 15.5896 111.167 14.7137V3.94885H114.43V14.7137C114.43 17.3131 112.216 19.4321 109.535 19.4321H103.037Z" fill="white"/>
<path d="M124.017 19.4321V7.11332H117.519V3.94885H133.779L132.322 7.11332H127.251V19.4321H124.017Z" fill="white"/>
<path d="M16.522 10.8657C15.94 6.99495 12.472 4 8.30501 4C3.73001 4 0 7.58828 0 12.0524C0 13.6064 0.467006 15.0756 1.25301 16.3188C1.48701 16.6578 1.749 16.9969 2.011 17.3077L3.759 15.3016C3.555 15.0191 3.38101 14.7366 3.20601 14.4258C2.85601 13.7194 2.65201 12.9 2.65201 12.0524C2.65201 9.02924 5.18701 6.57113 8.30501 6.57113C10.986 6.57113 13.259 8.40765 13.812 10.8657C13.9 11.233 13.958 11.6569 13.958 12.0524C13.958 12.3632 13.929 12.6457 13.871 12.9283C13.783 13.4369 13.609 13.9454 13.405 14.3975C13.259 14.7083 13.084 14.9908 12.88 15.2451L12.851 15.2734C12.618 15.5842 12.356 15.8667 12.064 16.121C12.006 16.1775 11.918 16.234 11.86 16.2905C11.831 16.3188 11.802 16.3188 11.773 16.347C11.744 16.3753 11.714 16.3753 11.714 16.4035C11.714 16.4035 11.685 16.4035 11.685 16.4318C11.365 16.6578 10.986 16.8839 10.607 17.0251C10.403 17.1099 10.17 17.1947 9.93701 17.2794C9.41201 17.4207 8.88801 17.5055 8.30501 17.5055C7.75201 17.5055 7.19801 17.4207 6.70201 17.2794C6.46901 17.2229 6.23601 17.1382 6.03201 17.0251L4.45901 18.8617C4.40001 18.9182 4.34201 19.0029 4.28401 19.0594C4.66301 19.2572 5.071 19.455 5.479 19.5963C5.799 19.7093 6.14901 19.8223 6.49901 19.8788C7.08101 20.0201 7.72201 20.0766 8.36301 20.0766C9.38301 20.0766 10.345 19.9071 11.219 19.5963C11.627 19.455 12.035 19.2572 12.414 19.0594C12.851 18.8334 13.259 18.5509 13.638 18.2401C13.725 18.1553 13.812 18.0988 13.9 18.014C13.929 17.9858 13.958 17.9575 13.987 17.9293C14.104 17.8163 14.22 17.7315 14.308 17.6185C14.424 17.5055 14.512 17.3924 14.628 17.2794C14.92 16.9686 15.153 16.6296 15.386 16.2905C15.561 16.0362 15.707 15.7537 15.852 15.4712C15.881 15.4147 15.911 15.3581 15.911 15.3299C15.998 15.1604 16.085 14.9626 16.144 14.7648C16.464 13.9172 16.639 12.9848 16.639 12.0242C16.61 11.6569 16.581 11.2613 16.522 10.8657Z" fill="white"/>
<path d="M16.6098 12.0524C16.6098 13.0131 16.4348 13.9455 16.1148 14.7931C16.0558 14.9909 15.9688 15.1604 15.8808 15.3582C15.8518 15.4147 15.8228 15.4712 15.8228 15.4994C15.6768 15.782 15.5318 16.0645 15.3568 16.3188C15.1238 16.6861 14.8618 16.9969 14.5988 17.3077C14.4828 17.4207 14.3948 17.5337 14.2788 17.6468C14.1618 17.7598 14.0748 17.8445 13.9578 17.9575H11.6848V13.9172L12.8508 15.2734L12.8798 15.2452C13.0838 14.9909 13.2588 14.7083 13.4048 14.3975C13.6378 13.9455 13.7828 13.4369 13.8708 12.9283C13.9288 12.6458 13.9578 12.335 13.9578 12.0524C13.9578 11.6569 13.8998 11.2613 13.8128 10.8658H16.5218C16.5808 11.2613 16.6098 11.6569 16.6098 12.0524Z" fill="white"/>
<path d="M15.8228 15.4994C15.6768 15.782 15.5318 16.0645 15.3568 16.3188C15.1238 16.6861 14.8608 16.9969 14.5988 17.3077C14.4828 17.4207 14.3948 17.5337 14.2788 17.6467C14.1618 17.7597 14.0748 17.8445 13.9578 17.9575C13.8418 18.0705 13.7248 18.1553 13.6078 18.2401C13.2298 18.5509 12.8218 18.8334 12.3848 19.0594C12.3258 19.0029 12.2678 18.9464 12.2098 18.8617L10.6358 17.0251L8.33383 14.3692L6.03183 17.0251C5.65283 16.8556 5.27482 16.6578 4.92482 16.4035C4.86682 16.3753 4.83782 16.3188 4.77882 16.2905C4.69182 16.234 4.63383 16.1775 4.57483 16.121C4.28383 15.8667 4.02182 15.5842 3.78882 15.2734L8.33383 10.0181L11.6848 13.9172L12.8508 15.2734L13.0258 15.4994L13.1418 15.6407C13.4628 15.9515 13.8998 16.1493 14.3948 16.1493C15.0068 16.2058 15.5028 15.9232 15.8228 15.4994Z" fill="white"/>
<path d="M142.276 3.58154C137.701 3.58154 134 7.16982 134 11.6057C134 16.0416 137.701 19.6299 142.276 19.6299C146.85 19.6299 150.551 16.0416 150.551 11.6057C150.551 7.16982 146.85 3.58154 142.276 3.58154ZM142.276 16.5502C139.449 16.5502 137.176 14.3464 137.176 11.6057C137.176 8.86507 139.449 6.66124 142.276 6.66124C145.102 6.66124 147.375 8.86507 147.375 11.6057C147.404 14.3464 145.102 16.5502 142.276 16.5502Z" fill="white"/>
</svg>
